<svg xmlns="http://www.w3.org/2000/svg" xmlns:xlink="http://www.w3.org/1999/xlink" viewBox="0 0 920 600" width="920" height="600">
  <defs>
    <g id="nut">
      <path d="M60 34 C80 38 98 56 96 90 C94 118 78 138 60 138 C42 138 26 118 24 90 C22 56 40 38 60 34 Z" fill="#D9A36A"/>
      <ellipse cx="48" cy="70" rx="22" ry="30" fill="#EFCB97" opacity="0.5"/>
      <ellipse cx="78" cy="106" rx="18" ry="26" fill="#BE8049" opacity="0.45"/>
      <path d="M60 34 C80 38 98 56 96 90 C94 118 78 138 60 138 C42 138 26 118 24 90 C22 56 40 38 60 34 Z" fill="none" stroke="#B5793F" stroke-width="1" opacity="0.35"/>
      <path d="M60 46 C66 70 66 108 60 126" stroke="#A8703A" stroke-width="2.5" fill="none" stroke-linecap="round" opacity="0.4"/>
    </g>
    <g id="sproutG">
      <path d="M60 33 L60 18" stroke="#1F3D2B" stroke-width="3" stroke-linecap="round" fill="none"/>
      <path d="M60 22 C52 16 43 18 41 24 C48 29 56 28 60 22 Z" fill="#274E37"/>
      <path d="M60 19 C68 11 79 11 83 17 C77 25 66 26 60 19 Z" fill="#1F3D2B"/>
    </g>
    <g id="sproutB">
      <path d="M60 33 L60 18" stroke="#4E9A63" stroke-width="3" stroke-linecap="round" fill="none"/>
      <path d="M60 22 C52 16 43 18 41 24 C48 29 56 28 60 22 Z" fill="#3E7A52"/>
      <path d="M60 19 C68 11 79 11 83 17 C77 25 66 26 60 19 Z" fill="#4E9A63"/>
    </g>
  </defs>

  <rect x="2" y="2" width="916" height="596" rx="24" fill="#F5F3EC" stroke="#1F3D2B" stroke-opacity="0.12"/>

  <use xlink:href="#sproutG" transform="translate(90,80) scale(2)"/>
  <use xlink:href="#nut" transform="translate(90,80) scale(2)"/>
  <g transform="translate(90,80) scale(2)">
    <ellipse cx="40" cy="99" rx="6.5" ry="4" fill="#E0875A" opacity="0.32"/>
    <ellipse cx="80" cy="99" rx="6.5" ry="4" fill="#E0875A" opacity="0.32"/>
    <circle cx="50" cy="88" r="5.5" fill="#3A2A1C"/><circle cx="48.3" cy="86.4" r="1.7" fill="#fff" opacity="0.85"/>
    <circle cx="70" cy="88" r="5.5" fill="#3A2A1C"/><circle cx="68.3" cy="86.4" r="1.7" fill="#fff" opacity="0.85"/>
    <path d="M51 101 Q60 109 69 101" stroke="#3A2A1C" stroke-width="2.5" fill="none" stroke-linecap="round"/>
  </g>

  <text x="330" y="232" font-family="DejaVu Serif, Georgia, serif" font-size="62" fill="#1F3D2B">Almond</text>
  <text x="333" y="268" font-family="DejaVu Sans, sans-serif" font-size="22" fill="#6B7A6E">the farm agent</text>

  <line x1="40" y1="400" x2="880" y2="400" stroke="#1F3D2B" stroke-opacity="0.1" stroke-width="1"/>

  <use xlink:href="#sproutG" transform="translate(39.5,422.7) scale(0.62)"/>
  <use xlink:href="#nut" transform="translate(39.5,422.7) scale(0.62)"/>
  <g transform="translate(39.5,422.7) scale(0.62)">
    <circle cx="51" cy="90" r="4.5" fill="#3A2A1C"/><circle cx="69" cy="90" r="4.5" fill="#3A2A1C"/>
    <path d="M53 101 Q60 106 67 101" stroke="#3A2A1C" stroke-width="2.2" fill="none" stroke-linecap="round"/>
  </g>
  <text x="76.7" y="552" font-family="DejaVu Sans, sans-serif" font-size="18" fill="#4A5C4E" text-anchor="middle">Icon</text>

  <circle cx="230" cy="476" r="54" fill="#1F3D2B"/>
  <use xlink:href="#sproutB" transform="translate(200,433) scale(0.5)"/>
  <use xlink:href="#nut" transform="translate(200,433) scale(0.5)"/>
  <g transform="translate(200,433) scale(0.5)">
    <circle cx="51" cy="90" r="4.5" fill="#3A2A1C"/><circle cx="69" cy="90" r="4.5" fill="#3A2A1C"/>
    <path d="M53 100 Q60 105 67 100" stroke="#3A2A1C" stroke-width="2.2" fill="none" stroke-linecap="round"/>
  </g>
  <text x="230" y="552" font-family="DejaVu Sans, sans-serif" font-size="18" fill="#4A5C4E" text-anchor="middle">On the button</text>

  <circle cx="383.3" cy="476" r="50" fill="none" stroke="#1F3D2B" stroke-width="2" opacity="0.45"/>
  <use xlink:href="#sproutG" transform="translate(346.1,422.7) scale(0.62)"/>
  <use xlink:href="#nut" transform="translate(346.1,422.7) scale(0.62)"/>
  <g transform="translate(346.1,422.7) scale(0.62)">
    <circle cx="50" cy="88" r="5.5" fill="#3A2A1C"/><circle cx="48.3" cy="86.4" r="1.7" fill="#fff" opacity="0.85"/>
    <circle cx="70" cy="88" r="5.5" fill="#3A2A1C"/><circle cx="68.3" cy="86.4" r="1.7" fill="#fff" opacity="0.85"/>
    <path d="M52 100 Q60 107 68 100" stroke="#3A2A1C" stroke-width="2.4" fill="none" stroke-linecap="round"/>
  </g>
  <text x="383.3" y="552" font-family="DejaVu Sans, sans-serif" font-size="18" fill="#4A5C4E" text-anchor="middle">Listening</text>

  <use xlink:href="#sproutG" transform="translate(499.5,422.7) scale(0.62)"/>
  <use xlink:href="#nut" transform="translate(499.5,422.7) scale(0.62)"/>
  <g transform="translate(499.5,422.7) scale(0.62)">
    <circle cx="51" cy="84" r="4.6" fill="#3A2A1C"/><circle cx="69" cy="84" r="4.6" fill="#3A2A1C"/>
    <path d="M55 101 Q60 103 65 101" stroke="#3A2A1C" stroke-width="2.2" fill="none" stroke-linecap="round"/>
  </g>
  <circle cx="586" cy="446" r="4" fill="#C98A2B"/><circle cx="596" cy="436" r="4" fill="#C98A2B"/><circle cx="606" cy="426" r="4" fill="#C98A2B"/>
  <text x="536.7" y="552" font-family="DejaVu Sans, sans-serif" font-size="18" fill="#4A5C4E" text-anchor="middle">Thinking</text>

  <use xlink:href="#sproutG" transform="translate(652.8,422.7) scale(0.62)"/>
  <use xlink:href="#nut" transform="translate(652.8,422.7) scale(0.62)"/>
  <g transform="translate(652.8,422.7) scale(0.62)">
    <path d="M44 89 Q50 83 56 89" stroke="#3A2A1C" stroke-width="2.6" fill="none" stroke-linecap="round"/>
    <path d="M64 89 Q70 83 76 89" stroke="#3A2A1C" stroke-width="2.6" fill="none" stroke-linecap="round"/>
    <path d="M49 99 Q60 110 71 99" stroke="#3A2A1C" stroke-width="2.8" fill="none" stroke-linecap="round"/>
  </g>
  <path d="M732 440 L735 448 L743 451 L735 454 L732 462 L729 454 L721 451 L729 448 Z" fill="#C98A2B"/>
  <text x="690" y="552" font-family="DejaVu Sans, sans-serif" font-size="18" fill="#4A5C4E" text-anchor="middle">Done</text>

  <circle cx="843.3" cy="476" r="70" fill="none" stroke="#1F3D2B" stroke-width="1.5" opacity="0.07"/>
  <circle cx="843.3" cy="476" r="56" fill="none" stroke="#1F3D2B" stroke-width="1.5" opacity="0.14"/>
  <use xlink:href="#sproutG" transform="translate(810.3,428.7) scale(0.55)"/>
  <use xlink:href="#nut" transform="translate(810.3,428.7) scale(0.55)"/>
  <g transform="translate(810.3,428.7) scale(0.55)">
    <ellipse cx="40" cy="99" rx="6.5" ry="4" fill="#E0875A" opacity="0.34"/>
    <ellipse cx="80" cy="99" rx="6.5" ry="4" fill="#E0875A" opacity="0.34"/>
    <circle cx="50" cy="86" r="6" fill="#3A2A1C"/><circle cx="48" cy="84" r="1.9" fill="#fff" opacity="0.85"/>
    <circle cx="70" cy="86" r="6" fill="#3A2A1C"/><circle cx="68" cy="84" r="1.9" fill="#fff" opacity="0.85"/>
    <path d="M49 100 Q60 111 71 100" stroke="#3A2A1C" stroke-width="2.8" fill="none" stroke-linecap="round"/>
  </g>
  <text x="843.3" y="552" font-family="DejaVu Sans, sans-serif" font-size="18" fill="#4A5C4E" text-anchor="middle">First login</text>
</svg>
